<?xml version="1.0" encoding="UTF-8" standalone="no"?>
<!DOCTYPE svg PUBLIC "-//W3C//DTD SVG 1.1//EN"
 "http://www.w3.org/Graphics/SVG/1.1/DTD/svg11.dtd">
<!-- Generated by graphviz version 2.40.1 (0)
 -->
<!-- Title: dependency&#45;cruiser output Pages: 1 -->
<svg width="516pt" height="164pt"
 viewBox="0.00 0.00 516.00 164.00" xmlns="http://www.w3.org/2000/svg" xmlns:xlink="http://www.w3.org/1999/xlink">
<g id="graph0" class="graph" transform="scale(1 1) rotate(0) translate(4 160)">
<title>dependency&#45;cruiser output</title>
<polygon fill="#ffffff" stroke="transparent" points="-4,4 -4,-160 512,-160 512,4 -4,4"/>
<g id="clust1" class="cluster">
<title>cluster_src</title>
<path fill="#ffffff" stroke="#000000" stroke-width="2" d="M20,-8C20,-8 488,-8 488,-8 494,-8 500,-14 500,-20 500,-20 500,-136 500,-136 500,-142 494,-148 488,-148 488,-148 20,-148 20,-148 14,-148 8,-142 8,-136 8,-136 8,-20 8,-20 8,-14 14,-8 20,-8"/>
<text text-anchor="middle" x="254" y="-136.8" font-family="Helvetica,sans-Serif" font-weight="bold" font-size="9.00" fill="#000000">src</text>
</g>
<!-- src/autofix -->
<g id="node1" class="node">
<title>src/autofix</title>
<g id="a_node1"><a xlink:href="src/autofix" xlink:title="autofix">
<polygon fill="#f8f9fb" stroke="#d0d7de" points="285,-122 233,-122 231,-120 231,-104 283,-104 285,-106 285,-122"/>
<polyline fill="none" stroke="#d0d7de" points="283,-120 231,-120 "/>
<polyline fill="none" stroke="#d0d7de" points="283,-120 283,-104 "/>
<polyline fill="none" stroke="#d0d7de" points="283,-120 285,-122 "/>
<text text-anchor="start" x="242" y="-110.8" font-family="DejaVu Sans" font-size="9.00" fill="#000000">autofix</text>
</a>
</g>
</g>
<!-- src/linter -->
<g id="node2" class="node">
<title>src/linter</title>
<g id="a_node2"><a xlink:href="src/linter" xlink:title="linter">
<polygon fill="#f8f9fb" stroke="#d0d7de" points="382,-90 330,-90 328,-88 328,-72 380,-72 382,-74 382,-90"/>
<polyline fill="none" stroke="#d0d7de" points="380,-88 328,-88 "/>
<polyline fill="none" stroke="#d0d7de" points="380,-88 380,-72 "/>
<polyline fill="none" stroke="#d0d7de" points="380,-88 382,-90 "/>
<text text-anchor="start" x="343" y="-78.8" font-family="DejaVu Sans" font-size="9.00" fill="#000000">linter</text>
</a>
</g>
</g>
<!-- src/autofix&#45;&gt;src/linter -->
<g id="edge1" class="edge">
<title>src/autofix&#45;&gt;src/linter</title>
<path fill="none" stroke="#b6bec7" d="M269.1271,-103.8366C281.9139,-97.0999 303.4947,-89.1872 321.8222,-84.0726"/>
<polygon fill="#b6bec7" stroke="#b6bec7" points="322.6402,-86.0279 327.8955,-82.4512 321.5568,-81.97 322.6402,-86.0279"/>
</g>
<!-- src/utils -->
<g id="node3" class="node">
<title>src/utils</title>
<g id="a_node3"><a xlink:href="src/utils" xlink:title="utils">
<polygon fill="#f8f9fb" stroke="#d0d7de" points="485.5,-122 433.5,-122 431.5,-120 431.5,-104 483.5,-104 485.5,-106 485.5,-122"/>
<polyline fill="none" stroke="#d0d7de" points="483.5,-120 431.5,-120 "/>
<polyline fill="none" stroke="#d0d7de" points="483.5,-120 483.5,-104 "/>
<polyline fill="none" stroke="#d0d7de" points="483.5,-120 485.5,-122 "/>
<text text-anchor="start" x="449" y="-110.8" font-family="DejaVu Sans" font-size="9.00" fill="#000000">utils</text>
</a>
</g>
</g>
<!-- src/autofix&#45;&gt;src/utils -->
<g id="edge2" class="edge">
<title>src/autofix&#45;&gt;src/utils</title>
<g id="a_edge2"><a xlink:title="no&#45;circular">
<path fill="none" stroke="#ffa500" d="M285.0403,-113C319.0469,-113 377.766,-113 417.3558,-113"/>
<polygon fill="#ffa500" stroke="#ffa500" points="425.2478,-115.1 431.2477,-113 425.2477,-110.9 425.2478,-115.1"/>
<polyline fill="none" stroke="#ffa500" points="425.2477,-113 422.2477,-113.0001 "/>
<ellipse fill="none" stroke="#ffa500" cx="419.8477" cy="-113.0001" rx="2.4" ry="2.4"/>
</a>
</g>
<text text-anchor="middle" x="333.862" y="-105.8" font-family="Helvetica,sans-Serif" font-size="9.00" fill="#ffa500">no&#45;circular</text>
</g>
<!-- src/linter&#45;&gt;src/autofix -->
<g id="edge11" class="edge">
<title>src/linter&#45;&gt;src/autofix</title>
<g id="a_edge11"><a xlink:title="no&#45;circular">
<path fill="none" stroke="#ffa500" d="M344.0644,-90.0623C332.9565,-95.9447 315.0736,-102.7423 298.4792,-107.7949"/>
<polygon fill="#ffa500" stroke="#ffa500" points="290.2298,-107.9279 285.0199,-111.5703 291.3641,-111.9718 290.2298,-107.9279"/>
<polyline fill="none" stroke="#ffa500" points="290.7969,-109.9498 293.6854,-109.1396 "/>
<ellipse fill="none" stroke="#ffa500" cx="295.9963" cy="-108.4914" rx="2.4" ry="2.4"/>
</a>
</g>
<text text-anchor="middle" x="290.4456" y="-95.1516" font-family="Helvetica,sans-Serif" font-size="9.00" fill="#ffa500">no&#45;circular</text>
</g>
<!-- src/linter&#45;&gt;src/utils -->
<g id="edge9" class="edge">
<title>src/linter&#45;&gt;src/utils</title>
<path fill="none" stroke="#b6bec7" d="M382.1934,-82.0459C400.8632,-86.3589 425.0842,-94.1863 441.1766,-101.2985"/>
<polygon fill="none" stroke="#b6bec7" points="440.3868,-103.2472 446.7123,-103.8786 442.1611,-99.4404 440.3868,-103.2472"/>
</g>
<!-- src/formatter -->
<g id="node5" class="node">
<title>src/formatter</title>
<g id="a_node5"><a xlink:href="src/formatter" xlink:title="formatter">
<polygon fill="#f8f9fb" stroke="#d0d7de" points="488,-42 431,-42 429,-40 429,-24 486,-24 488,-26 488,-42"/>
<polyline fill="none" stroke="#d0d7de" points="486,-40 429,-40 "/>
<polyline fill="none" stroke="#d0d7de" points="486,-40 486,-24 "/>
<polyline fill="none" stroke="#d0d7de" points="486,-40 488,-42 "/>
<text text-anchor="start" x="437" y="-30.8" font-family="DejaVu Sans" font-size="9.00" fill="#000000">formatter</text>
</a>
</g>
</g>
<!-- src/linter&#45;&gt;src/formatter -->
<g id="edge10" class="edge">
<title>src/linter&#45;&gt;src/formatter</title>
<path fill="none" stroke="#b6bec7" d="M364.1849,-71.794C377.2992,-62.7698 402.1149,-50.2841 423.0003,-41.5863"/>
<polygon fill="#b6bec7" stroke="#b6bec7" points="424.0063,-43.4443 428.7739,-39.2396 422.4247,-39.5535 424.0063,-43.4443"/>
</g>
<!-- src/manifest.ts -->
<g id="node8" class="node">
<title>src/manifest.ts</title>
<g id="a_node8"><a xlink:href="src/manifest.ts" xlink:title="manifest.ts">
<polygon fill="#ddfeff" stroke="#d0d7de" points="492,-82 425,-82 425,-64 492,-64 492,-82"/>
<text text-anchor="start" x="433" y="-70.8" font-family="DejaVu Sans" font-size="9.00" fill="#000000">manifest.ts</text>
</a>
</g>
</g>
<!-- src/linter&#45;&gt;src/manifest.ts -->
<g id="edge12" class="edge">
<title>src/linter&#45;&gt;src/manifest.ts</title>
<path fill="none" stroke="#b6bec7" d="M382.1934,-78.8981C393.312,-78.0387 406.3994,-77.0271 418.5662,-76.0867"/>
<polygon fill="#b6bec7" stroke="#b6bec7" points="419.0092,-78.1588 424.8295,-75.6026 418.6854,-73.9713 419.0092,-78.1588"/>
</g>
<!-- src/utils&#45;&gt;src/linter -->
<g id="edge13" class="edge">
<title>src/utils&#45;&gt;src/linter</title>
<g id="a_edge13"><a xlink:title="no&#45;circular">
<path fill="none" stroke="#ffa500" d="M431.3024,-111.9532C415.2824,-108.252 395.1763,-101.9637 379.6255,-95.7601"/>
<polygon fill="#ffa500" stroke="#ffa500" points="373.2109,-90.6517 366.8728,-90.1634 371.523,-94.4976 373.2109,-90.6517"/>
<polyline fill="none" stroke="#ffa500" points="372.367,-92.5746 375.1141,-93.7803 "/>
<ellipse fill="none" stroke="#ffa500" cx="377.3117" cy="-94.7447" rx="2.4" ry="2.4"/>
</a>
</g>
<text text-anchor="middle" x="373.6704" y="-95.2958" font-family="Helvetica,sans-Serif" font-size="9.00" fill="#ffa500">no&#45;circular</text>
</g>
<!-- src/cli -->
<g id="node4" class="node">
<title>src/cli</title>
<g id="a_node4"><a xlink:href="src/cli" xlink:title="cli">
<polygon fill="#f8f9fb" stroke="#d0d7de" points="188,-66 136,-66 134,-64 134,-48 186,-48 188,-50 188,-66"/>
<polyline fill="none" stroke="#d0d7de" points="186,-64 134,-64 "/>
<polyline fill="none" stroke="#d0d7de" points="186,-64 186,-48 "/>
<polyline fill="none" stroke="#d0d7de" points="186,-64 188,-66 "/>
<text text-anchor="start" x="156" y="-54.8" font-family="DejaVu Sans" font-size="9.00" fill="#000000">cli</text>
</a>
</g>
</g>
<!-- src/cli&#45;&gt;src/linter -->
<g id="edge5" class="edge">
<title>src/cli&#45;&gt;src/linter</title>
<path fill="none" stroke="#b6bec7" d="M188.1882,-62.1379C201.1221,-64.4597 216.8237,-67.1015 231,-69 261.6314,-73.1021 296.7002,-76.3635 321.7095,-78.4447"/>
<polygon fill="#b6bec7" stroke="#b6bec7" points="321.6905,-80.5501 327.8422,-78.9482 322.0342,-76.3642 321.6905,-80.5501"/>
</g>
<!-- src/cli&#45;&gt;src/formatter -->
<g id="edge3" class="edge">
<title>src/cli&#45;&gt;src/formatter</title>
<path fill="none" stroke="#b6bec7" d="M178.272,-47.9353C192.1058,-41.2128 212.235,-32.6138 231,-29 297.6852,-16.1576 377.4015,-22.3674 422.5744,-27.8323"/>
<polygon fill="#b6bec7" stroke="#b6bec7" points="422.5008,-29.9393 428.7143,-28.5964 423.0196,-25.7714 422.5008,-29.9393"/>
</g>
<!-- src/index.ts -->
<g id="node6" class="node">
<title>src/index.ts</title>
<g id="a_node6"><a xlink:href="src/index.ts" xlink:title="index.ts">
<polygon fill="#ddfeff" stroke="#d0d7de" points="285,-58 231,-58 231,-40 285,-40 285,-58"/>
<text text-anchor="start" x="239.5" y="-46.8" font-family="DejaVu Sans" font-size="9.00" fill="#000000">index.ts</text>
</a>
</g>
</g>
<!-- src/cli&#45;&gt;src/index.ts -->
<g id="edge4" class="edge">
<title>src/cli&#45;&gt;src/index.ts</title>
<path fill="none" stroke="#b6bec7" d="M188.0199,-54.7716C199.3812,-53.8345 212.7132,-52.735 224.6756,-51.7484"/>
<polygon fill="#b6bec7" stroke="#b6bec7" points="224.9815,-53.8304 230.7886,-51.2442 224.6362,-49.6446 224.9815,-53.8304"/>
</g>
<!-- src/formatter&#45;&gt;src/linter -->
<g id="edge7" class="edge">
<title>src/formatter&#45;&gt;src/linter</title>
<path fill="none" stroke="#b6bec7" d="M449.5017,-42.0772C435.8771,-51.4985 409.3228,-64.7584 387.8232,-73.5163"/>
<polygon fill="#b6bec7" stroke="#b6bec7" points="386.9958,-71.5852 382.1934,-75.7503 388.545,-75.4891 386.9958,-71.5852"/>
</g>
<!-- src/index.ts&#45;&gt;src/linter -->
<g id="edge8" class="edge">
<title>src/index.ts&#45;&gt;src/linter</title>
<path fill="none" stroke="#b6bec7" d="M285.0199,-57.9138C296.4854,-61.6962 309.958,-66.1408 322.0045,-70.1149"/>
<polygon fill="#b6bec7" stroke="#b6bec7" points="321.4327,-72.1375 327.7886,-72.023 322.7486,-68.1489 321.4327,-72.1375"/>
</g>
<!-- src/cli.ts -->
<g id="node7" class="node">
<title>src/cli.ts</title>
<g id="a_node7"><a xlink:href="src/cli.ts" xlink:title="cli.ts">
<polygon fill="#ddfeff" stroke="#d0d7de" points="80.5,-74 26.5,-74 26.5,-56 80.5,-56 80.5,-74"/>
<text text-anchor="start" x="42.5" y="-62.8" font-family="DejaVu Sans" font-size="9.00" fill="#000000">cli.ts</text>
</a>
</g>
</g>
<!-- src/cli.ts&#45;&gt;src/cli -->
<g id="edge6" class="edge">
<title>src/cli.ts&#45;&gt;src/cli</title>
<path fill="none" stroke="#b6bec7" d="M80.6268,-62.9813C94.886,-61.9201 112.4894,-60.6101 127.5836,-59.4868"/>
<polygon fill="#b6bec7" stroke="#b6bec7" points="128.0543,-61.5577 133.8819,-59.0181 127.7426,-57.3693 128.0543,-61.5577"/>
</g>
<!-- src/untyped.d.ts -->
<g id="node9" class="node">
<title>src/untyped.d.ts</title>
<g id="a_node9"><a xlink:href="src/untyped.d.ts" xlink:title="untyped.d.ts">
<polygon fill="#ccffcc" stroke="#d0d7de" points="91,-34 16,-34 16,-16 91,-16 91,-34"/>
<text text-anchor="start" x="24" y="-22.8" font-family="DejaVu Sans" font-size="9.00" fill="#000000">untyped.d.ts</text>
</a>
</g>
</g>
</g>
</svg>
